<svg width="72" height="55" viewBox="0 0 72 55" fill="none" xmlns="http://www.w3.org/2000/svg">
<path d="M17.6823 14.6893C19.2706 14.7672 20.7374 14.6024 22.3671 14.8399C23.4954 15.0043 24.0957 15.2018 25.1608 15.465C28.1631 16.2068 30.734 17.8747 32.6536 20.299C33.7189 21.6679 34.7017 23.9184 35.042 25.652C35.4315 27.6367 35.362 29.7394 35.3603 31.7742L35.3581 38.8858L35.3863 45.8325C35.3881 46.9083 35.5016 48.1067 35.3526 49.1749C35.3422 49.2498 35.3337 49.3816 35.2715 49.4261C34.9639 49.6462 28.8056 49.6096 28.1407 49.5055C27.5655 48.3999 27.3214 47.3318 27.01 46.1348C26.9685 45.9751 26.9781 45.7618 26.8638 45.6696C26.2482 46.4226 24.6694 47.5761 23.8149 48.0797C20.0488 50.2991 13.9726 50.7023 9.80659 49.5774C7.01631 48.8241 4.5315 47.2912 3.06572 44.7313C1.28321 41.7174 1.48535 36.1193 3.80851 33.3954C4.11506 33.036 4.73444 32.2789 5.09895 32.0037C5.78585 31.4996 6.72096 30.83 7.48886 30.4731C10.6737 28.9931 14.3764 29.3038 17.8079 29.3068C20.444 29.328 23.0802 29.316 25.7159 29.2709C25.6457 28.8379 25.6909 28.298 25.6747 27.8515C25.5504 25.0893 23.9568 23.0006 21.1593 22.428C18.3709 21.8572 14.4383 22.5117 13.2478 25.5451C13.2046 25.6552 13.0047 26.2709 12.8734 26.2759C10.0836 26.3814 7.26016 26.2991 4.4622 26.3013C4.19322 26.3015 3.85754 26.2443 3.60772 26.1785C3.27691 25.6816 4.93641 21.6185 5.34321 21.03C6.38274 19.5261 7.4171 18.5414 8.8782 17.4545C10.6929 16.1046 12.8912 15.5594 15.0549 15.0018C15.8045 14.8086 16.9055 14.7557 17.6823 14.6893ZM12.9653 41.9939C14.6614 43.1605 17.1258 43.2502 19.0338 42.9422C22.2777 42.4187 24.9366 40.0175 25.5648 36.766C25.6395 36.3795 25.7604 36.0035 25.7835 35.6055L25.7317 35.5188C25.6608 35.5193 25.5999 35.5138 25.5326 35.5309C23.3338 35.6023 21.0314 35.5611 18.7214 35.5458C15.7674 35.5262 11.642 35.2389 11.5935 39.4528C11.5829 40.371 12.1766 41.4672 12.9653 41.9939Z" fill="#FEFEFE"/>
<path d="M39.6925 9.52107C40.4619 9.48138 46.8791 9.47461 47.157 9.60706C47.2964 10.1929 47.2368 11.2599 47.2334 11.8965L47.2301 14.9453C47.2309 15.8401 47.3016 17.5392 47.2244 18.367C48.1836 18.288 49.5343 18.3256 50.5231 18.3264L56.614 18.3422L56.6441 22.6736C56.657 23.4782 56.7692 25.7685 56.5915 26.4243C56.1564 26.4858 54.1277 26.4378 53.5425 26.4321C51.4606 26.4122 49.2913 26.4748 47.2192 26.4233C47.3003 27.1929 47.2283 28.8586 47.2337 29.7404C47.2512 32.5789 47.2108 35.371 47.2399 38.2172C47.1997 39.6754 47.7542 41.4416 48.7905 42.4912C49.363 43.071 51.3778 43.6605 52.1943 43.7221C53.7657 43.8407 55.4641 43.7961 57.0448 43.7501C57.1533 44.657 57.092 46.7305 57.0883 47.708C57.0915 48.3622 57.157 51.775 57.0088 52.1563C56.36 52.4808 49.485 52.2424 48.4614 52.1493C45.2403 51.8408 42.3781 50.7344 40.1814 48.2928C39.6819 47.7376 39.4615 47.2409 39.0742 46.659C37.4516 44.2203 37.7176 42.0145 37.7206 39.2034L37.7255 32.3929C37.7291 29.8754 37.7923 27.6937 37.3388 25.196C36.8503 22.5054 35.7415 20.6394 34.3407 18.3436C35.0565 18.3296 36.2577 18.223 36.9296 17.8913C38.9489 16.8944 39.0693 13.4393 39.3541 11.4987C39.4502 10.8433 39.4412 10.136 39.6838 9.54185L39.6925 9.52107Z" fill="#FEFEFE"/>
<path d="M59.8984 1.14631C60.2497 1.18522 61.1182 1.16315 61.5017 1.16343L64.9741 1.15999C65.848 1.15571 67.5995 0.960794 68.1893 1.66474C69.8699 3.67144 69.64 5.59485 69.6378 8.0026L69.6599 13.0363L69.6561 28.9888L69.6631 42.8591C69.6642 44.6359 69.6604 46.4124 69.6975 48.1889C69.7028 48.4475 69.6969 48.7048 69.669 48.9622C69.5632 49.1118 69.5959 49.0667 69.3644 49.1109C68.2328 49.1579 66.6558 49.1065 65.4919 49.1059C63.5841 49.1218 61.6757 49.1218 59.7674 49.1058C59.7239 48.8126 59.7002 48.5169 59.6954 48.2205C59.6267 45.1672 59.6965 41.8299 59.6975 38.747L59.6895 21.5471L59.6959 8.66572C59.6959 6.37285 59.6868 4.06504 59.7131 1.77188C59.7163 1.47798 59.7072 1.34715 59.8984 1.14631Z" fill="#FEFEFE"/>
</svg>
