<svg width="58" height="22" viewBox="0 0 58 22" fill="none" xmlns="http://www.w3.org/2000/svg">
<path d="M6.972 10L6.672 7.42L7.08 6.604L6.684 5.572L7.236 0.76H9.552L8.868 6.412L9.276 10H6.972ZM7.488 6.58C7.368 7.308 7.14 7.944 6.804 8.488C6.468 9.024 6.044 9.444 5.532 9.748C5.02 10.044 4.444 10.192 3.804 10.192C3.132 10.192 2.54 10.04 2.028 9.736C1.524 9.432 1.128 9.012 0.84 8.476C0.552 7.932 0.408 7.3 0.408 6.58C0.408 5.86 0.552 5.232 0.84 4.696C1.128 4.152 1.524 3.728 2.028 3.424C2.54 3.12 3.132 2.968 3.804 2.968C4.444 2.968 5.02 3.12 5.532 3.424C6.044 3.72 6.468 4.136 6.804 4.672C7.148 5.208 7.376 5.844 7.488 6.58ZM2.664 6.58C2.664 6.948 2.74 7.276 2.892 7.564C3.044 7.844 3.252 8.068 3.516 8.236C3.788 8.396 4.1 8.476 4.452 8.476C4.804 8.476 5.136 8.396 5.448 8.236C5.768 8.068 6.048 7.844 6.288 7.564C6.528 7.276 6.708 6.948 6.828 6.58C6.708 6.212 6.528 5.888 6.288 5.608C6.048 5.32 5.768 5.096 5.448 4.936C5.136 4.768 4.804 4.684 4.452 4.684C4.1 4.684 3.788 4.768 3.516 4.936C3.252 5.096 3.044 5.32 2.892 5.608C2.74 5.888 2.664 6.212 2.664 6.58ZM13.4563 10.18C12.8243 10.18 12.2803 10.052 11.8243 9.796C11.3763 9.532 11.0323 9.16 10.7923 8.68C10.5603 8.2 10.4443 7.632 10.4443 6.976V3.16H12.6763V6.652C12.6763 7.204 12.8083 7.628 13.0723 7.924C13.3363 8.22 13.7163 8.368 14.2123 8.368C14.5803 8.368 14.8923 8.292 15.1483 8.14C15.4043 7.988 15.6003 7.768 15.7363 7.48C15.8803 7.192 15.9523 6.852 15.9523 6.46L16.6483 6.832C16.5683 7.552 16.3763 8.164 16.0723 8.668C15.7763 9.164 15.4003 9.54 14.9443 9.796C14.4963 10.052 14.0003 10.18 13.4563 10.18ZM16.3843 10L15.9523 7.336V3.16H18.1723V7.672L18.6163 10H16.3843ZM19.4038 3.16H21.6238L22.0678 5.824V10H19.8358V5.488L19.4038 3.16ZM24.4678 2.968C25.0918 2.968 25.6198 3.1 26.0518 3.364C26.4918 3.628 26.8238 4 27.0478 4.48C27.2798 4.952 27.3958 5.52 27.3958 6.184V10H25.1638V6.52C25.1638 5.952 25.0398 5.524 24.7918 5.236C24.5438 4.94 24.1798 4.792 23.6998 4.792C23.3638 4.792 23.0718 4.872 22.8238 5.032C22.5838 5.184 22.3958 5.404 22.2598 5.692C22.1318 5.972 22.0678 6.308 22.0678 6.7L21.3598 6.328C21.4478 5.6 21.6358 4.988 21.9238 4.492C22.2198 3.996 22.5838 3.62 23.0158 3.364C23.4558 3.1 23.9398 2.968 24.4678 2.968ZM29.7838 2.968C30.4078 2.968 30.9398 3.1 31.3798 3.364C31.8198 3.628 32.1518 4 32.3758 4.48C32.6078 4.952 32.7238 5.52 32.7238 6.184V10H30.4918V6.52C30.4918 5.952 30.3678 5.524 30.1198 5.236C29.8718 4.94 29.5078 4.792 29.0278 4.792C28.6918 4.792 28.3998 4.872 28.1518 5.032C27.9118 5.184 27.7238 5.404 27.5878 5.692C27.4598 5.972 27.3958 6.308 27.3958 6.7L26.6878 6.328C26.7758 5.6 26.9638 4.988 27.2518 4.492C27.5398 3.996 27.9038 3.62 28.3438 3.364C28.7838 3.1 29.2638 2.968 29.7838 2.968ZM33.7241 3.16H35.9441L36.3881 5.824V10H34.1561V5.488L33.7241 3.16ZM38.7881 2.968C39.4121 2.968 39.9401 3.1 40.3721 3.364C40.8121 3.628 41.1441 4 41.3681 4.48C41.6001 4.952 41.7161 5.52 41.7161 6.184V10H39.4841V6.52C39.4841 5.952 39.3601 5.524 39.1121 5.236C38.8641 4.94 38.5001 4.792 38.0201 4.792C37.6841 4.792 37.3921 4.872 37.1441 5.032C36.9041 5.184 36.7161 5.404 36.5801 5.692C36.4521 5.972 36.3881 6.308 36.3881 6.7L35.6801 6.328C35.7681 5.6 35.9561 4.988 36.2441 4.492C36.5401 3.996 36.9041 3.62 37.3361 3.364C37.7761 3.1 38.2601 2.968 38.7881 2.968ZM44.1041 2.968C44.7281 2.968 45.2601 3.1 45.7001 3.364C46.1401 3.628 46.4721 4 46.6961 4.48C46.9281 4.952 47.0441 5.52 47.0441 6.184V10H44.8121V6.52C44.8121 5.952 44.6881 5.524 44.4401 5.236C44.1921 4.94 43.8281 4.792 43.3481 4.792C43.0121 4.792 42.7201 4.872 42.4721 5.032C42.2321 5.184 42.0441 5.404 41.9081 5.692C41.7801 5.972 41.7161 6.308 41.7161 6.7L41.0081 6.328C41.0961 5.6 41.2841 4.988 41.5721 4.492C41.8601 3.996 42.2241 3.62 42.6641 3.364C43.1041 3.1 43.5841 2.968 44.1041 2.968ZM50.1752 12.172C49.6952 12.172 49.2672 12.112 48.8912 11.992C48.5232 11.872 48.1632 11.692 47.8112 11.452V9.88C48.1712 10.112 48.5072 10.276 48.8192 10.372C49.1392 10.476 49.4872 10.528 49.8632 10.528C50.1992 10.528 50.4912 10.456 50.7392 10.312C50.9952 10.168 51.2072 9.904 51.3752 9.52L54.1112 3.16H56.4752L53.1272 10.216C52.9032 10.696 52.6352 11.08 52.3232 11.368C52.0112 11.656 51.6712 11.86 51.3032 11.98C50.9432 12.108 50.5672 12.172 50.1752 12.172ZM50.4392 9.46L47.4752 3.16H49.9232L52.5872 9.46H50.4392ZM5.268 12C6.324 12 7.248 12.188 8.04 12.564C8.832 12.94 9.448 13.464 9.888 14.136C10.336 14.808 10.56 15.596 10.56 16.5C10.56 17.396 10.336 18.184 9.888 18.864C9.448 19.536 8.832 20.06 8.04 20.436C7.248 20.812 6.324 21 5.268 21H0.876V12H5.268ZM3.132 20.076L2.028 18.996H5.436C6.012 18.996 6.512 18.892 6.936 18.684C7.36 18.476 7.688 18.188 7.92 17.82C8.152 17.444 8.268 17.004 8.268 16.5C8.268 15.988 8.152 15.548 7.92 15.18C7.688 14.812 7.36 14.524 6.936 14.316C6.512 14.108 6.012 14.004 5.436 14.004H2.028L3.132 12.924V20.076ZM17.9165 21L17.6165 18.516L17.9405 17.58L17.6165 16.656L17.9165 14.16H20.2325L19.8125 17.58L20.2325 21H17.9165ZM18.4685 17.58C18.3485 18.308 18.1205 18.944 17.7845 19.488C17.4485 20.024 17.0245 20.444 16.5125 20.748C16.0005 21.044 15.4245 21.192 14.7845 21.192C14.1125 21.192 13.5205 21.04 13.0085 20.736C12.5045 20.432 12.1085 20.012 11.8205 19.476C11.5325 18.932 11.3885 18.3 11.3885 17.58C11.3885 16.86 11.5325 16.232 11.8205 15.696C12.1085 15.152 12.5045 14.728 13.0085 14.424C13.5205 14.12 14.1125 13.968 14.7845 13.968C15.4245 13.968 16.0005 14.12 16.5125 14.424C17.0245 14.72 17.4485 15.136 17.7845 15.672C18.1285 16.208 18.3565 16.844 18.4685 17.58ZM13.6445 17.58C13.6445 17.948 13.7205 18.276 13.8725 18.564C14.0245 18.844 14.2325 19.068 14.4965 19.236C14.7685 19.396 15.0805 19.476 15.4325 19.476C15.7845 19.476 16.1165 19.396 16.4285 19.236C16.7485 19.068 17.0285 18.844 17.2685 18.564C17.5085 18.276 17.6885 17.948 17.8085 17.58C17.6885 17.212 17.5085 16.888 17.2685 16.608C17.0285 16.32 16.7485 16.096 16.4285 15.936C16.1165 15.768 15.7845 15.684 15.4325 15.684C15.0805 15.684 14.7685 15.768 14.4965 15.936C14.2325 16.096 14.0245 16.32 13.8725 16.608C13.7205 16.888 13.6445 17.212 13.6445 17.58ZM20.8373 15.816V14.844L22.2533 14.328L23.2013 12.336H24.4853V14.16H27.4373V15.816H24.4853V18.072C24.4853 18.584 24.5893 18.944 24.7973 19.152C25.0053 19.352 25.3773 19.452 25.9133 19.452C26.2493 19.452 26.5493 19.424 26.8133 19.368C27.0773 19.304 27.3253 19.22 27.5573 19.116V20.808C27.3173 20.904 27.0013 20.992 26.6093 21.072C26.2253 21.152 25.8253 21.192 25.4093 21.192C24.6813 21.192 24.0813 21.076 23.6093 20.844C23.1453 20.612 22.8013 20.288 22.5773 19.872C22.3613 19.448 22.2533 18.952 22.2533 18.384V15.816H20.8373ZM34.6274 21L34.3274 18.516L34.6514 17.58L34.3274 16.656L34.6274 14.16H36.9434L36.5234 17.58L36.9434 21H34.6274ZM35.1794 17.58C35.0594 18.308 34.8314 18.944 34.4954 19.488C34.1594 20.024 33.7354 20.444 33.2234 20.748C32.7114 21.044 32.1354 21.192 31.4954 21.192C30.8234 21.192 30.2314 21.04 29.7194 20.736C29.2154 20.432 28.8194 20.012 28.5314 19.476C28.2434 18.932 28.0994 18.3 28.0994 17.58C28.0994 16.86 28.2434 16.232 28.5314 15.696C28.8194 15.152 29.2154 14.728 29.7194 14.424C30.2314 14.12 30.8234 13.968 31.4954 13.968C32.1354 13.968 32.7114 14.12 33.2234 14.424C33.7354 14.72 34.1594 15.136 34.4954 15.672C34.8394 16.208 35.0674 16.844 35.1794 17.58ZM30.3554 17.58C30.3554 17.948 30.4314 18.276 30.5834 18.564C30.7354 18.844 30.9434 19.068 31.2074 19.236C31.4794 19.396 31.7914 19.476 32.1434 19.476C32.4954 19.476 32.8274 19.396 33.1394 19.236C33.4594 19.068 33.7394 18.844 33.9794 18.564C34.2194 18.276 34.3994 17.948 34.5194 17.58C34.3994 17.212 34.2194 16.888 33.9794 16.608C33.7394 16.32 33.4594 16.096 33.1394 15.936C32.8274 15.768 32.4954 15.684 32.1434 15.684C31.7914 15.684 31.4794 15.768 31.2074 15.936C30.9434 16.096 30.7354 16.32 30.5834 16.608C30.4314 16.888 30.3554 17.212 30.3554 17.58Z" fill="white"/>
<path d="M51.1249 19.2498C51.6081 19.2498 51.9998 19.6416 51.9999 20.1248C51.9999 20.6081 51.6081 20.9998 51.1249 20.9998H39.8749C39.3917 20.9997 38.9999 20.608 38.9999 20.1248C39 19.6417 39.3917 19.2499 39.8749 19.2498H51.1249ZM48.1249 16.6248C48.6081 16.6248 48.9998 17.0167 48.9999 17.4998C48.9999 17.9831 48.6081 18.3748 48.1249 18.3748H39.8749C39.3917 18.3747 38.9999 17.983 38.9999 17.4998C39 17.0167 39.3917 16.6249 39.8749 16.6248H48.1249ZM53.1249 13.9998C53.6081 13.9998 53.9998 14.3916 53.9999 14.8748C53.9999 15.3581 53.6081 15.7498 53.1249 15.7498H39.8749C39.3917 15.7497 38.9999 15.358 38.9999 14.8748C39 14.3917 39.3917 13.9999 39.8749 13.9998H53.1249Z" fill="#1973FC"/>
</svg>
